<svg id="Layer_1" data-name="Layer 1" xmlns="http://www.w3.org/2000/svg" viewBox="0 0 68.8 31.08"><defs><style>.cls-1{font-size:14.4px;}.cls-1,.cls-2{fill:#231f20;font-family:Poppins-SemiBold, Poppins;font-weight:600;}.cls-2{font-size:12.76px;}.cls-3{fill:#004183;}</style></defs><text class="cls-1" transform="translate(21.16 12.25)">FAISAL</text><text class="cls-2" transform="translate(21.31 23.51)">SHAIKH</text><path class="cls-3" d="M16.46,5v.09a1.54,1.54,0,0,1-1.55,1.54H11.36A1.55,1.55,0,0,0,9.81,8.22v.35a1.54,1.54,0,0,0,1.55,1.54h1.88a1.56,1.56,0,0,1,1.55,1.55h0a1.56,1.56,0,0,1-1.55,1.55H11.36a1.54,1.54,0,0,0-1.55,1.54v3.51a1.54,1.54,0,0,1-1.54,1.55H7.38a1.54,1.54,0,0,1-1.54-1.55V5A1.54,1.54,0,0,1,7.38,3.49h7.53A1.54,1.54,0,0,1,16.46,5Z" transform="translate(-5.84 -1.33)"/><path class="cls-3" d="M13.69,23.12a5.22,5.22,0,0,1-2.26-1.72,4.25,4.25,0,0,1-.61-1.13A1.2,1.2,0,0,1,12,18.66h1.89a1.16,1.16,0,0,1,1.09.7,1.71,1.71,0,0,0,.46.68,2,2,0,0,0,1.4.48,2.19,2.19,0,0,0,1.39-.41A1.37,1.37,0,0,0,18.69,19a1.32,1.32,0,0,0-.41-1,3.26,3.26,0,0,0-1-.65,16.21,16.21,0,0,0-1.68-.58,17.46,17.46,0,0,1-2.58-1,4.63,4.63,0,0,1-1.72-1.44,4,4,0,0,1-.72-2.48,4.28,4.28,0,0,1,1.65-3.57A6.77,6.77,0,0,1,16.53,7a6.86,6.86,0,0,1,4.35,1.29,4.35,4.35,0,0,1,1.45,2,1.2,1.2,0,0,1-1.13,1.6H19.26a1.19,1.19,0,0,1-1.08-.69,1.52,1.52,0,0,0-.42-.55,2,2,0,0,0-1.37-.46,1.68,1.68,0,0,0-1.16.39,1.35,1.35,0,0,0-.44,1.1,1.35,1.35,0,0,0,.74,1.23,12.52,12.52,0,0,0,2.32,1,19.58,19.58,0,0,1,2.57,1,4.83,4.83,0,0,1,1.71,1.42,3.78,3.78,0,0,1,.72,2.39,4.71,4.71,0,0,1-.71,2.53A5,5,0,0,1,20.09,23a7,7,0,0,1-3.19.67A8.38,8.38,0,0,1,13.69,23.12Z" transform="translate(-5.84 -1.33)"/></svg>